<svg width="680" height="94" xmlns="http://www.w3.org/2000/svg">
 <!-- Created with Method Draw - http://github.com/duopixel/Method-Draw/ -->

 <g>
  <title>background</title>
  <rect fill="none" id="canvas_background" height="96" width="682" y="-1" x="-1"/>
  <g display="none" overflow="visible" y="0" x="0" height="100%" width="100%" id="canvasGrid">
   <rect fill="url(#gridpattern)" stroke-width="0" y="0" x="0" height="100%" width="100%"/>
  </g>
 </g>
 <g>
  <title>Layer 1</title>
  <g id="svg_5">
   <path id="svg_4" d="m45.55078,17.53125c-2.34375,2.77344 -6.09375,4.96094 -9.84375,4.64844c-0.46875,-3.75 1.36719,-7.73438 3.51563,-10.19531c2.34375,-2.85156 6.44531,-4.88281 9.76563,-5.03906c0.39063,3.90625 -1.13281,7.73438 -3.4375,10.58594m3.39844,5.39063c-5.42969,-0.3125 -10.07813,3.08594 -12.65625,3.08594c-2.61719,0 -6.5625,-2.92969 -10.85938,-2.85156c-5.58594,0.07813 -10.78125,3.24219 -13.63281,8.28125c-5.85938,10.07813 -1.52344,25 4.14063,33.20313c2.77344,4.0625 6.09375,8.51563 10.46875,8.35938c4.14063,-0.15625 5.78125,-2.69531 10.78125,-2.69531c5.03906,0 6.48438,2.69531 10.85938,2.61719c4.53125,-0.07813 7.38281,-4.0625 10.15625,-8.125c3.16406,-4.60938 4.45313,-9.10156 4.53125,-9.33594c-0.07813,-0.07813 -8.75,-3.39844 -8.82813,-13.39844c-0.07813,-8.35938 6.83594,-12.34375 7.14844,-12.57813c-3.90625,-5.78125 -10,-6.40625 -12.10938,-6.5625m31.36719,-11.32813l0,60.89844l9.45313,0l0,-20.82031l13.08594,0c11.95313,0 20.35156,-8.20313 20.35156,-20.07813s-8.24219,-20 -20.03906,-20l-22.85156,0zm9.45313,7.96875l10.89844,0c8.20313,0 12.89063,4.375 12.89063,12.07031s-4.6875,12.10938 -12.92969,12.10938l-10.85938,0l0,-24.17969zm50.70313,53.39844c5.9375,0 11.44531,-3.00781 13.94531,-7.77344l0.19531,0l0,7.30469l8.75,0l0,-30.3125c0,-8.78906 -7.03125,-14.45313 -17.85156,-14.45313c-10.03906,0 -17.46094,5.74219 -17.73438,13.63281l8.51563,0c0.70313,-3.75 4.17969,-6.21094 8.94531,-6.21094c5.78125,0 9.02344,2.69531 9.02344,7.65625l0,3.35938l-11.79688,0.70313c-10.97656,0.66406 -16.91406,5.15625 -16.91406,12.96875c0,7.89063 6.13281,13.125 14.92188,13.125zm2.53906,-7.22656c-5.03906,0 -8.24219,-2.42188 -8.24219,-6.13281c0,-3.82813 3.08594,-6.05469 8.98438,-6.40625l10.50781,-0.66406l0,3.4375c0,5.70313 -4.84375,9.76563 -11.25,9.76563zm32.03125,23.32031c9.21875,0 13.55469,-3.51563 17.34375,-14.17969l16.60156,-46.5625l-9.60938,0l-11.13281,35.97656l-0.19531,0l-11.13281,-35.97656l-9.88281,0l16.01563,44.33594l-0.85938,2.69531c-1.44531,4.57031 -3.78906,6.32813 -7.96875,6.32813c-0.74219,0 -2.1875,-0.07813 -2.77344,-0.15625l0,7.30469c0.54688,0.15625 2.89063,0.23438 3.59375,0.23438z"/>
  </g>
  <g id="svg_14">
   <path id="svg_9" fill="#5f6368" d="m328.58582,49.09184l0,23.28141l-7.38583,0l0,-57.49476l19.5885,0a17.71222,17.71222 0 0 1 12.68435,4.9774a16.0011,16.0011 0 0 1 5.29853,12.13386a15.9277,15.9277 0 0 1 -5.29853,12.20267q-5.13797,4.89942 -12.68435,4.89483l-12.20267,0l0,0.00459zm0,-27.13489l0,20.07018l12.38617,0a9.76214,9.76214 0 0 0 7.30784,-2.97268a9.79884,9.79884 0 0 0 0,-14.05142a9.63369,9.63369 0 0 0 -7.30784,-3.05067l-12.38617,0l0,0.00459zm47.20507,9.79425q8.18863,0 12.92749,4.37645t4.73427,12.00082l0,24.24478l-7.0647,0l0,-5.45909l-0.32112,0q-4.58747,6.74358 -12.20267,6.74358q-6.50044,0 -10.87689,-3.85347a12.30359,12.30359 0 0 1 -4.37645,-9.63369q0,-6.10592 4.61499,-9.71167t12.32194,-3.61493q6.57843,0 10.8356,2.40842l0,-1.68819a8.40883,8.40883 0 0 0 -3.05067,-6.53714a10.45943,10.45943 0 0 0 -7.12893,-2.69284q-6.1885,0 -9.79425,5.22054l-6.50503,-4.09661q5.36734,-7.70695 15.88641,-7.70695zm-9.5557,28.57994a5.89949,5.89949 0 0 0 2.44971,4.81684a9.00979,9.00979 0 0 0 5.73892,1.92674a11.77604,11.77604 0 0 0 8.30791,-3.44978q3.66998,-3.45436 3.66998,-8.10606q-3.45436,-2.75248 -9.63369,-2.75248q-4.50031,0 -7.5051,2.16987c-2.02307,1.46799 -3.02773,3.25252 -3.02773,5.39486zm67.77069,-27.29545l-24.66224,56.67819l-7.62438,0l9.152,-19.83163l-16.21671,-36.84656l8.02807,0l11.72099,28.25882l0.16056,0l11.39986,-28.25882l8.04183,0z"/>
   <path id="svg_10" fill="#4285f4" d="m298.73974,44.07314a39.35591,39.35591 0 0 0 -0.56885,-6.71606l-31.14892,0l0,12.72105l17.84067,0a15.29004,15.29004 0 0 1 -6.59678,10.03738l0,8.25745l10.64752,0c6.23437,-5.7481 9.82636,-14.24868 9.82636,-24.29983z"/>
   <path id="svg_11" fill="#34a853" d="m267.02197,76.35058c8.91345,0 16.41856,-2.92681 21.89141,-7.97302l-10.64752,-8.25745c-2.96351,2.00931 -6.78028,3.15618 -11.24389,3.15618c-8.61527,0 -15.9277,-5.80774 -18.54255,-13.63396l-10.96864,0l0,8.50976a33.02978,33.02978 0 0 0 29.51119,18.19849z"/>
   <path id="svg_12" fill="#fbbc04" d="m248.47942,49.64233a19.79035,19.79035 0 0 1 0,-12.64307l0,-8.50976l-10.96864,0a33.02978,33.02978 0 0 0 0,29.66258l10.96864,-8.50976z"/>
   <path id="svg_13" fill="#ea4335" d="m267.02197,23.36531a17.93242,17.93242 0 0 1 12.67059,4.95447l9.42725,-9.42725a31.73612,31.73612 0 0 0 -22.09784,-8.60151a33.02978,33.02978 0 0 0 -29.51119,18.19849l10.96864,8.50976c2.61486,-7.82622 9.92729,-13.63396 18.54255,-13.63396z"/>
  </g>
  <g id="svg_23">
   <path id="svg_18" fill="#f05124" d="m464.50663,9.00057l36.9894,0l0,36.9894l-36.9894,0l0,-36.9894z"/>
   <path id="svg_19" fill="#7ebb42" d="m505.35437,9.00057l36.9894,0l0,36.9894l-36.9894,0l0,-36.9894z"/>
   <path id="svg_20" fill="#32a0da" d="m464.50663,49.84832l36.9894,0l0,37.00752l-36.9894,0l0,-37.00752z"/>
   <path id="svg_21" fill="#fdb813" d="m505.35437,49.84832l36.9894,0l0,37.00752l-36.9894,0l0,-37.00752z"/>
   <path id="svg_22" fill="#737474" d="m572.84825,52.56547l0,17.53464l-5.99583,0l0,-46.39072l14.03858,0c5.47052,0 9.70926,1.21366 12.71624,3.62286s4.51046,5.8328 4.51046,10.21647c0,4.40177 -1.66652,8.00652 -4.99955,10.81424c-3.33303,2.80772 -7.84349,4.20252 -13.53138,4.20252l-6.73852,0zm0,-23.9471l0,19.02002l6.26755,0c4.13006,0 7.28195,-0.85137 9.45566,-2.57223s3.26057,-4.13006 3.26057,-7.26383c0,-6.12263 -3.98515,-9.18395 -11.97355,-9.18395l-7.01023,0zm54.23421,41.48175l-5.85092,0l0,-5.18069l-0.14491,0c-2.536,3.96703 -6.28566,5.9596 -11.23087,5.9596c-3.64097,0 -6.48492,-0.86949 -8.53184,-2.62657c-2.04692,-1.73897 -3.07943,-4.0576 -3.07943,-6.95589c0,-6.19509 4.02137,-9.79984 12.04601,-10.81424l10.94104,-1.3948c0,-5.63355 -2.49977,-8.44126 -7.51743,-8.44126c-4.40177,0 -8.36881,1.35857 -11.9011,4.07572l0,-5.43429c3.58663,-2.06503 7.71669,-3.09755 12.4083,-3.09755c8.58618,0 12.86115,4.11195 12.86115,12.35395l0,21.55602zm-5.85092,-16.75573l-8.80355,1.10497c-2.71715,0.34417 -4.74595,0.96006 -6.12263,1.82954c-1.37669,0.86949 -2.06503,2.42732 -2.06503,4.63726c0,1.61217 0.634,2.93452 1.902,3.96703c1.268,1.03252 2.97075,1.53972 5.072,1.53972c2.89829,0 5.28938,-0.92383 7.19138,-2.77149c1.88389,-1.84766 2.82583,-4.1844 2.82583,-7.01023l0,-3.2968zm42.26066,-16.37533l-16.79196,38.43854c-2.98886,6.86532 -7.19138,10.28892 -12.62567,10.28892c-1.5216,0 -2.7896,-0.14491 -3.82212,-0.41663l0,-4.76406c1.268,0.3804 2.4092,0.57966 3.45983,0.57966c2.95263,0 5.16258,-1.59406 6.62983,-4.78218l2.9164,-6.28566l-14.25595,-33.0586l6.48492,0l9.87229,25.48682c0.1268,0.32606 0.36229,1.15932 0.74269,2.51789l0.21737,0c0.1268,-0.52531 0.36229,-1.34046 0.70646,-2.46354l10.37949,-25.55928l6.0864,0l0,0.01811z"/>
  </g>
 </g>
</svg>